<svg xmlns="http://www.w3.org/2000/svg" width="456.906" height="77.469" viewBox="0 0 456.906 77.469"><path id="Sedona" fill="#fff" d="M9.53 51.934L.239 66.8A41.654 41.654 0 0012.2 74.408a38.286 38.286 0 0013.705 3.078h1.278q1.625 0 3.368-.174t3.484-.523q2.091-.465 4.181-1.1a30.129 30.129 0 004.065-1.568 21.862 21.862 0 008.537-8.362 29.194 29.194 0 003.891-11.5c0-.386.018-.813.058-1.278s.058-.929.058-1.394v-.582a22.719 22.719 0 00-3.368-11.44 18.022 18.022 0 00-9.757-7.723q-1.394-.463-3.484-.987t-4.3-1.1q-2.673-.811-5.11-1.684a12.642 12.642 0 01-3.717-1.916 9.885 9.885 0 01-1.277-1.278A4.075 4.075 0 0123 23.363a1.761 1.761 0 01-.29-.7 4.107 4.107 0 01-.058-.7 5.807 5.807 0 012.323-4.355 9.364 9.364 0 014.994-2.381h.931a16.647 16.647 0 017.549 1.742 44.7 44.7 0 016.62 4.065l6.389-14.279a45.328 45.328 0 00-7.607-3.833A40.993 40.993 0 0035.546.6Q33.919.368 32.352.192a27.878 27.878 0 00-3.077-.174 29.24 29.24 0 00-12.253 2.671 21.606 21.606 0 00-9.582 8.827A17.532 17.532 0 005.349 15.7a25.481 25.481 0 00-1.161 4.646A10.163 10.163 0 003.9 22.2c-.04.621-.058 1.239-.058 1.858v.871a3.558 3.558 0 00.116.871 18.979 18.979 0 00.407 2.671q.285 1.282.635 2.441a15.67 15.67 0 006.853 8.888 37 37 0 0010.685 4.472.529.529 0 01.232.058.494.494 0 00.232.058q1.045.234 2.207.523a25.347 25.347 0 012.439.755 21.574 21.574 0 015.865 3.31 6.5 6.5 0 012.729 5.284 7.946 7.946 0 01-.116 1.278 13.99 13.99 0 01-.348 1.51c-.078.156-.156.31-.232.465s-.156.31-.232.465a7.885 7.885 0 01-2.614 2.551 10.276 10.276 0 01-3.542 1.394 7.3 7.3 0 01-.987.174 8.7 8.7 0 01-.987.058.917.917 0 01-.29-.058.982.982 0 00-.29-.058.914.914 0 01-.29-.058.982.982 0 00-.29-.058 15.943 15.943 0 01-9.059-3.194 49.2 49.2 0 01-7.085-6.446l-.18-.174q-.062-.059-.17-.175zM69.344 75.86h45.412V59.251H89.2V46.708h24.041v-15.8H89.2V18.02h25.551V1.876H69.344V75.86zm111.613-6.969a32.041 32.041 0 0010.336-12.544 41.176 41.176 0 003.949-15.912v-2.9a8.623 8.623 0 00-.116-1.394 40.351 40.351 0 00-4.065-15.331 30.492 30.492 0 00-10.1-11.963 30.4 30.4 0 00-11.208-5.11 73.776 73.776 0 00-12.373-1.744q-1.743-.114-3.543-.116h-25.145V75.86h23.868q1.8 0 3.658-.116A80.625 80.625 0 00169.11 74a33.6 33.6 0 0011.847-5.11zm-32.4-9.64V18.485h7.543a31.706 31.706 0 016.1.813 13.36 13.36 0 015.4 2.671 16.478 16.478 0 015.11 6.562 23.683 23.683 0 012.091 8.537 3.9 3.9 0 01.116.929v.929a26 26 0 01-1.8 9.582 15.81 15.81 0 01-5.517 7.259 17.027 17.027 0 01-5.226 2.439 30.565 30.565 0 01-5.924 1.045q-1.162.117-2.439.174t-2.439.058a4.117 4.117 0 01-.7-.058 5.076 5.076 0 00-.813-.058 5.156 5.156 0 01-.754-.058 5.481 5.481 0 00-.755-.058zm61.671-38.56a37.855 37.855 0 00-2.555 5.865 45.942 45.942 0 00-1.626 6.1 23.5 23.5 0 00-.464 3.136q-.117 1.511-.117 3.02a38.266 38.266 0 005.571 19.688 37.806 37.806 0 0015.331 14.576 37.411 37.411 0 007.491 2.9 45.613 45.613 0 007.84 1.394c.541 0 1.064.018 1.568.058s1.025.058 1.568.058a41.526 41.526 0 0021.719-6.214 37.044 37.044 0 0015.215-17.48 42.1 42.1 0 001.568-4.7 29.578 29.578 0 00.871-4.82 16.275 16.275 0 00.29-2.381q.057-1.22.058-2.381a40.29 40.29 0 00-4.529-18.525 36.274 36.274 0 00-12.776-14.23 40.031 40.031 0 00-8.072-3.949 42.472 42.472 0 00-8.537-2.091L247.8.483q-1.453-.114-2.846-.116a40.724 40.724 0 00-19.86 5.226 36.759 36.759 0 00-14.867 15.1zm52.846 26.6a20.5 20.5 0 01-7.143 9.814 18.173 18.173 0 01-11.092 3.659c-.465 0-.929-.018-1.394-.058s-.929-.1-1.393-.174a14.587 14.587 0 01-1.51-.29c-.465-.116-.929-.25-1.394-.407a16.08 16.08 0 01-9.466-7.259A24.454 24.454 0 01225.9 40.9a3.558 3.558 0 01-.116-.871v-.87c0-.541.018-1.063.058-1.568s.1-1.025.174-1.568q.231-1.16.464-2.265a19.612 19.612 0 01.581-2.149 1.859 1.859 0 01.058-.465 2.233 2.233 0 01.174-.465 19.334 19.334 0 016.969-9.872 17.9 17.9 0 0110.917-3.717 15.656 15.656 0 012.323.174q1.16.174 2.323.407 1.159.348 2.323.813t2.323 1.045a17.816 17.816 0 016.736 7.2 27.438 27.438 0 013.02 9.64c0 .465.018.929.058 1.394s.058.929.058 1.394-.02.969-.058 1.51-.1 1.085-.174 1.626a19.619 19.619 0 01-.407 2.555q-.291 1.279-.638 2.439zm35.65 28.569h19.512V39.391q0-3.716-.348-7.433t-.929-7.317q.579 1.279 1.219 2.729t1.336 2.962q.928 2.091 1.974 4.007a20.44 20.44 0 002.207 3.31L351.8 75.86h19.4V1.876h-19.4v36.353q0 2.556.116 4.994t.349 4.762q.114 1.279.29 2.439t.29 2.439q-.7-1.394-1.394-2.9t-1.393-3.02q-.931-1.857-1.917-3.659t-2.032-3.426L318.236 1.876h-19.512V75.86zm82.114 0h19.976l3.833-13.36h28.572l3.716 13.356h20.209l-25.668-73.98h-25.2L380.838 75.86zm35.656-52.148q.462-1.625.871-3.252t.755-3.368a.954.954 0 00.116-.407.931.931 0 01.116-.406 12.938 12.938 0 01.291-1.336q.174-.637.29-1.219.114.583.232 1.22a9.378 9.378 0 00.349 1.336q.348 1.859.871 3.775t1.1 3.659l7.549 24.506h-20.089l7.549-24.506z" transform="translate(-.25 -.031)"/></svg>